<?xml version="1.0" encoding="UTF-8" standalone="no"?>
<!-- Generator: Adobe Illustrator 16.0.0, SVG Export Plug-In . SVG Version: 6.00 Build 0)  -->

<svg
   xmlns:dc="http://purl.org/dc/elements/1.1/"
   xmlns:cc="http://creativecommons.org/ns#"
   xmlns:rdf="http://www.w3.org/1999/02/22-rdf-syntax-ns#"
   xmlns:svg="http://www.w3.org/2000/svg"
   xmlns="http://www.w3.org/2000/svg"
   xmlns:sodipodi="http://sodipodi.sourceforge.net/DTD/sodipodi-0.dtd"
   xmlns:inkscape="http://www.inkscape.org/namespaces/inkscape"
   version="1.1"
   id="Calque_1"
   x="0px"
   y="0px"
   width="144px"
   height="144px"
   viewBox="0 0 144 144"
   enable-background="new 0 0 144 144"
   xml:space="preserve"
   inkscape:version="0.91 r13725"
   sodipodi:docname="noPictureUser.svg"><metadata
     id="metadata9"><rdf:RDF><cc:Work
         rdf:about=""><dc:format>image/svg+xml</dc:format><dc:type
           rdf:resource="http://purl.org/dc/dcmitype/StillImage" /></cc:Work></rdf:RDF></metadata><defs
     id="defs7" /><sodipodi:namedview
     pagecolor="#ffffff"
     bordercolor="#666666"
     borderopacity="1"
     objecttolerance="10"
     gridtolerance="10"
     guidetolerance="10"
     inkscape:pageopacity="0"
     inkscape:pageshadow="2"
     inkscape:window-width="1468"
     inkscape:window-height="841"
     id="namedview5"
     showgrid="false"
     inkscape:zoom="1.6388889"
     inkscape:cx="72"
     inkscape:cy="72"
     inkscape:window-x="0"
     inkscape:window-y="24"
     inkscape:window-maximized="0"
     inkscape:current-layer="Calque_1" /><path
     fill-rule="evenodd"
     clip-rule="evenodd"
     fill="#9B9B9B"
     d="M18.805,125.945v-13.299c0-17.954,35.241-26.598,53.195-26.598  c17.953,0,53.195,8.644,53.195,26.598v13.299H18.805z M72,72.75c-14.629,0-26.598-11.97-26.598-26.598  c0-14.629,11.968-26.598,26.598-26.598c14.63,0,26.598,11.968,26.598,26.598C98.598,60.78,86.63,72.75,72,72.75z"
     id="path3" /><path
     style="fill:#ffffff"
     d="M 65.992361,71.826734 C 62.000774,70.885744 56.287895,67.593909 53.270873,64.496447 40.584769,51.472106 44.615281,30.140602 61.261017,22.208572 c 3.693187,-1.759879 4.430134,-1.889928 10.709611,-1.889928 6.565586,0 6.865962,0.06052 11.384572,2.293737 13.331518,6.588794 18.69143,22.147091 12.110668,35.153793 -5.544199,10.957955 -17.810992,16.809923 -29.473507,14.06056 z"
     id="path3337"
     inkscape:connector-curvature="0" /><path
     style="fill:#ffffff"
     d="m 19.159322,117.52824 c 0,-9.71588 0.682838,-11.55239 6.191603,-16.65254 5.970023,-5.527187 15.989416,-9.776406 30.418567,-12.900496 8.080664,-1.749564 24.988612,-1.611178 33.810376,0.276726 17.397692,3.723199 30.436662,10.850974 33.930322,18.54807 0.97545,2.14909 1.18399,4.0142 1.19505,10.68814 l 0.0134,8.08474 -52.779657,0 -52.779661,0 0,-8.04464 z"
     id="path3339"
     inkscape:connector-curvature="0" /></svg>